<svg width="42" height="25" viewBox="0 0 42 25" fill="none" xmlns="http://www.w3.org/2000/svg">
<path d="M21 0C19.3755 0 17.8176 0.658481 16.669 1.83058C15.5203 3.00269 14.875 4.5924 14.875 6.25C14.875 7.9076 15.5203 9.49731 16.669 10.6694C17.8176 11.8415 19.3755 12.5 21 12.5C22.6245 12.5 24.1824 11.8415 25.331 10.6694C26.4797 9.49731 27.125 7.9076 27.125 6.25C27.125 4.5924 26.4797 3.00269 25.331 1.83058C24.1824 0.658481 22.6245 0 21 0ZM21 3.57143C21.6962 3.57143 22.3639 3.85363 22.8562 4.35596C23.3484 4.85829 23.625 5.5396 23.625 6.25C23.625 6.9604 23.3484 7.64171 22.8562 8.14404C22.3639 8.64637 21.6962 8.92857 21 8.92857C20.3038 8.92857 19.6361 8.64637 19.1438 8.14404C18.6516 7.64171 18.375 6.9604 18.375 6.25C18.375 5.5396 18.6516 4.85829 19.1438 4.35596C19.6361 3.85363 20.3038 3.57143 21 3.57143ZM9.625 5.35714C8.46468 5.35714 7.35188 5.82749 6.53141 6.6647C5.71094 7.50192 5.25 8.63743 5.25 9.82143C5.25 11.5 6.1775 12.9464 7.5075 13.7143C8.1375 14.0714 8.855 14.2857 9.625 14.2857C10.395 14.2857 11.1125 14.0714 11.7425 13.7143C12.39 13.3393 12.9325 12.8036 13.335 12.1607C12.0601 10.4653 11.3709 8.38701 11.375 6.25V5.75C10.85 5.5 10.255 5.35714 9.625 5.35714ZM32.375 5.35714C31.745 5.35714 31.15 5.5 30.625 5.75V6.25C30.625 8.39286 29.9425 10.4643 28.665 12.1607C28.875 12.5 29.1025 12.7679 29.365 13.0357C30.172 13.8341 31.251 14.2822 32.375 14.2857C33.145 14.2857 33.8625 14.0714 34.4925 13.7143C35.8225 12.9464 36.75 11.5 36.75 9.82143C36.75 8.63743 36.2891 7.50192 35.4686 6.6647C34.6481 5.82749 33.5353 5.35714 32.375 5.35714ZM21 16.0714C16.905 16.0714 8.75 18.1607 8.75 22.3214V25H33.25V22.3214C33.25 18.1607 25.095 16.0714 21 16.0714ZM8.2425 17.0536C4.865 17.4643 0 19.2143 0 22.3214V25H5.25V21.5536C5.25 19.75 6.4575 18.25 8.2425 17.0536ZM33.7575 17.0536C35.5425 18.25 36.75 19.75 36.75 21.5536V25H42V22.3214C42 19.2143 37.135 17.4643 33.7575 17.0536ZM21 19.6429C23.6775 19.6429 26.67 20.5357 28.4025 21.4286H13.5975C15.33 20.5357 18.3225 19.6429 21 19.6429Z" fill="white"/>
<path d="M21 0C19.3755 0 17.8176 0.658481 16.669 1.83058C15.5203 3.00269 14.875 4.5924 14.875 6.25C14.875 7.9076 15.5203 9.49731 16.669 10.6694C17.8176 11.8415 19.3755 12.5 21 12.5C22.6245 12.5 24.1824 11.8415 25.331 10.6694C26.4797 9.49731 27.125 7.9076 27.125 6.25C27.125 4.5924 26.4797 3.00269 25.331 1.83058C24.1824 0.658481 22.6245 0 21 0ZM21 3.57143C21.6962 3.57143 22.3639 3.85363 22.8562 4.35596C23.3484 4.85829 23.625 5.5396 23.625 6.25C23.625 6.9604 23.3484 7.64171 22.8562 8.14404C22.3639 8.64637 21.6962 8.92857 21 8.92857C20.3038 8.92857 19.6361 8.64637 19.1438 8.14404C18.6516 7.64171 18.375 6.9604 18.375 6.25C18.375 5.5396 18.6516 4.85829 19.1438 4.35596C19.6361 3.85363 20.3038 3.57143 21 3.57143ZM9.625 5.35714C8.46468 5.35714 7.35188 5.82749 6.53141 6.6647C5.71094 7.50192 5.25 8.63743 5.25 9.82143C5.25 11.5 6.1775 12.9464 7.5075 13.7143C8.1375 14.0714 8.855 14.2857 9.625 14.2857C10.395 14.2857 11.1125 14.0714 11.7425 13.7143C12.39 13.3393 12.9325 12.8036 13.335 12.1607C12.0601 10.4653 11.3709 8.38701 11.375 6.25V5.75C10.85 5.5 10.255 5.35714 9.625 5.35714ZM32.375 5.35714C31.745 5.35714 31.15 5.5 30.625 5.75V6.25C30.625 8.39286 29.9425 10.4643 28.665 12.1607C28.875 12.5 29.1025 12.7679 29.365 13.0357C30.172 13.8341 31.251 14.2822 32.375 14.2857C33.145 14.2857 33.8625 14.0714 34.4925 13.7143C35.8225 12.9464 36.75 11.5 36.75 9.82143C36.75 8.63743 36.2891 7.50192 35.4686 6.6647C34.6481 5.82749 33.5353 5.35714 32.375 5.35714ZM21 16.0714C16.905 16.0714 8.75 18.1607 8.75 22.3214V25H33.25V22.3214C33.25 18.1607 25.095 16.0714 21 16.0714ZM8.2425 17.0536C4.865 17.4643 0 19.2143 0 22.3214V25H5.25V21.5536C5.25 19.75 6.4575 18.25 8.2425 17.0536ZM33.7575 17.0536C35.5425 18.25 36.75 19.75 36.75 21.5536V25H42V22.3214C42 19.2143 37.135 17.4643 33.7575 17.0536ZM21 19.6429C23.6775 19.6429 26.67 20.5357 28.4025 21.4286H13.5975C15.33 20.5357 18.3225 19.6429 21 19.6429Z" fill="url(#paint0_linear_1_284)"/>
<defs>
<linearGradient id="paint0_linear_1_284" x1="21" y1="0" x2="21" y2="25" gradientUnits="userSpaceOnUse">
<stop stop-color="white"/>
<stop offset="1" stop-color="white" stop-opacity="0"/>
</linearGradient>
</defs>
</svg>
