<svg width="39" height="38" viewBox="0 0 39 38" fill="none" xmlns="http://www.w3.org/2000/svg">
<path d="M19.5 10.5191L23.8432 13.0927L22.6909 8.23909L26.5909 4.99182L21.4677 4.56L19.5 0L17.4968 4.56L12.4091 4.99182L16.2736 8.23909L15.0682 13.0927L19.5 10.5191ZM24.8182 38H14.1818V15.5455H24.8182V38ZM0 27.6364V38H10.6364V27.6364H0ZM7.09091 34.5455H3.54545V31.0909H7.09091V34.5455ZM28.3636 20.7273V38H39V20.7273H28.3636ZM35.4545 34.5455H31.9091V24.1818H35.4545V34.5455Z" fill="white"/>
<path d="M19.5 10.5191L23.8432 13.0927L22.6909 8.23909L26.5909 4.99182L21.4677 4.56L19.5 0L17.4968 4.56L12.4091 4.99182L16.2736 8.23909L15.0682 13.0927L19.5 10.5191ZM24.8182 38H14.1818V15.5455H24.8182V38ZM0 27.6364V38H10.6364V27.6364H0ZM7.09091 34.5455H3.54545V31.0909H7.09091V34.5455ZM28.3636 20.7273V38H39V20.7273H28.3636ZM35.4545 34.5455H31.9091V24.1818H35.4545V34.5455Z" fill="url(#paint0_linear_1_282)"/>
<defs>
<linearGradient id="paint0_linear_1_282" x1="19.5" y1="0" x2="19.5" y2="38" gradientUnits="userSpaceOnUse">
<stop stop-color="white"/>
<stop offset="1" stop-color="white" stop-opacity="0"/>
</linearGradient>
</defs>
</svg>
