<svg width="36" height="33" viewBox="0 0 36 33" fill="none" xmlns="http://www.w3.org/2000/svg">
<path d="M36 24.75L27.6279 33L21.7674 27.225L24.2791 24.75L27.6279 28.05L33.4884 22.275L36 24.75ZM18.586 29.535C17.9163 29.7 17.414 29.7 16.7442 29.7C9.37674 29.7 3.34884 23.76 3.34884 16.5C3.34884 9.24 9.37674 3.3 16.7442 3.3C24.1116 3.3 30.1395 9.24 30.1395 16.5C30.1395 17.16 30.1395 17.655 29.9721 18.315C31.1442 18.48 32.1488 18.81 33.1535 19.305C33.3209 18.315 33.4884 17.49 33.4884 16.5C33.4884 7.425 25.9535 0 16.7442 0C7.53488 0 0 7.425 0 16.5C0 25.575 7.53488 33 16.7442 33C17.7488 33 18.7535 32.835 19.5907 32.67C19.0884 31.845 18.7535 30.69 18.586 29.535ZM22.7721 19.965L17.5814 16.995V8.25H15.0698V18.15L20.9302 21.615C21.4326 20.955 22.1023 20.46 22.7721 19.965Z" fill="white"/>
<path d="M36 24.75L27.6279 33L21.7674 27.225L24.2791 24.75L27.6279 28.05L33.4884 22.275L36 24.75ZM18.586 29.535C17.9163 29.7 17.414 29.7 16.7442 29.7C9.37674 29.7 3.34884 23.76 3.34884 16.5C3.34884 9.24 9.37674 3.3 16.7442 3.3C24.1116 3.3 30.1395 9.24 30.1395 16.5C30.1395 17.16 30.1395 17.655 29.9721 18.315C31.1442 18.48 32.1488 18.81 33.1535 19.305C33.3209 18.315 33.4884 17.49 33.4884 16.5C33.4884 7.425 25.9535 0 16.7442 0C7.53488 0 0 7.425 0 16.5C0 25.575 7.53488 33 16.7442 33C17.7488 33 18.7535 32.835 19.5907 32.67C19.0884 31.845 18.7535 30.69 18.586 29.535ZM22.7721 19.965L17.5814 16.995V8.25H15.0698V18.15L20.9302 21.615C21.4326 20.955 22.1023 20.46 22.7721 19.965Z" fill="url(#paint0_linear_1_283)"/>
<defs>
<linearGradient id="paint0_linear_1_283" x1="18" y1="0" x2="18" y2="33" gradientUnits="userSpaceOnUse">
<stop stop-color="white"/>
<stop offset="1" stop-color="white" stop-opacity="0"/>
</linearGradient>
</defs>
</svg>
